<?xml version="1.0" encoding="UTF-8"?>
<svg width="257px" height="208px" viewBox="0 0 257 208" version="1.1" xmlns="http://www.w3.org/2000/svg" xmlns:xlink="http://www.w3.org/1999/xlink">
    <!-- Generator: Sketch 44.1 (41455) - http://www.bohemiancoding.com/sketch -->
    <title>layout-normal</title>
    <desc>Created with Sketch.</desc>
    <defs></defs>
    <g id="Page-1" stroke="none" stroke-width="1" fill="none" fill-rule="evenodd">
        <g id="layout-normal" fill-rule="nonzero" fill="#343333">
            <g id="Group">
                <rect id="Rectangle-path" x="0.35" y="0.754" width="78.186" height="13.264"></rect>
                <rect id="Rectangle-path" x="0.35" y="16.11" width="37.697" height="13.264"></rect>
                <rect id="Rectangle-path" x="40.84" y="16.11" width="37.697" height="13.264"></rect>
                <rect id="Rectangle-path" x="0.35" y="31.47" width="78.186" height="13.264"></rect>
                <rect id="Rectangle-path" x="0.35" y="46.826" width="37.697" height="13.264"></rect>
                <rect id="Rectangle-path" x="40.84" y="46.826" width="37.697" height="13.264"></rect>
            </g>
            <g id="Group" transform="translate(178.000000, 1.000000)">
                <rect id="Rectangle-path" x="0.646" y="0.803" width="78.185" height="13.264"></rect>
                <rect id="Rectangle-path" x="0.646" y="16.16" width="37.695" height="13.264"></rect>
                <rect id="Rectangle-path" x="41.135" y="16.16" width="37.696" height="13.264"></rect>
                <rect id="Rectangle-path" x="0.646" y="31.519" width="37.695" height="13.264"></rect>
                <rect id="Rectangle-path" x="41.135" y="31.519" width="37.696" height="13.264"></rect>
                <rect id="Rectangle-path" x="0.646" y="46.874" width="37.695" height="13.264"></rect>
                <rect id="Rectangle-path" x="41.135" y="46.874" width="37.696" height="13.264"></rect>
            </g>
            <g id="Group" transform="translate(0.000000, 74.000000)">
                <rect id="Rectangle-path" x="0.35" y="16.109" width="37.697" height="13.264"></rect>
                <rect id="Rectangle-path" x="40.84" y="16.109" width="37.697" height="13.264"></rect>
                <rect id="Rectangle-path" x="0.35" y="0.752" width="37.697" height="13.265"></rect>
                <rect id="Rectangle-path" x="40.84" y="0.752" width="37.697" height="13.265"></rect>
                <rect id="Rectangle-path" x="0.35" y="31.469" width="37.697" height="13.264"></rect>
                <rect id="Rectangle-path" x="40.84" y="31.469" width="37.697" height="13.264"></rect>
                <rect id="Rectangle-path" x="0.35" y="46.824" width="37.697" height="13.264"></rect>
                <rect id="Rectangle-path" x="40.84" y="46.824" width="37.697" height="13.264"></rect>
            </g>
            <g id="Group" transform="translate(0.000000, 147.000000)">
                <rect id="Rectangle-path" x="0" y="16" width="37.697" height="13.264"></rect>
                <rect id="Rectangle-path" x="0" y="46.716" width="37.697" height="13.264"></rect>
                <rect id="Rectangle-path" x="41" y="16" width="20" height="3"></rect>
                <rect id="Rectangle-path" x="41" y="46.716" width="20" height="3"></rect>
                <rect id="Rectangle-path" x="41" y="21" width="28.35" height="3"></rect>
                <rect id="Rectangle-path" x="41" y="51.716" width="28.35" height="3"></rect>
                <rect id="Rectangle-path" x="41" y="26" width="28.35" height="3"></rect>
                <rect id="Rectangle-path" x="41" y="56.716" width="28.35" height="3"></rect>
                <rect id="Rectangle-path" x="0.35" y="0.752" width="78" height="13.265"></rect>
                <rect id="Rectangle-path" x="40.84" y="31.469" width="37.697" height="13.264"></rect>
                <rect id="Rectangle-path" x="0.350000381" y="31" width="20" height="3"></rect>
                <rect id="Rectangle-path" x="0.350000381" y="36" width="28.35" height="3"></rect>
                <rect id="Rectangle-path" x="0.350000381" y="41" width="28.35" height="3"></rect>
            </g>
            <g id="Group" transform="translate(89.000000, 73.000000)">
                <rect id="Rectangle-path" x="0.498" y="16.061" width="24.364" height="13.264"></rect>
                <rect id="Rectangle-path" x="27.41" y="16.061" width="24.363" height="13.264"></rect>
                <rect id="Rectangle-path" x="54.321" y="16.061" width="24.363" height="13.264"></rect>
                <rect id="Rectangle-path" x="0.498" y="0.703" width="24.364" height="13.265"></rect>
                <rect id="Rectangle-path" x="27.41" y="0.703" width="24.363" height="13.265"></rect>
                <rect id="Rectangle-path" x="54.321" y="0.703" width="24.363" height="13.265"></rect>
                <rect id="Rectangle-path" x="0.498" y="46.775" width="24.364" height="13.266"></rect>
                <rect id="Rectangle-path" x="27.41" y="46.775" width="24.363" height="13.266"></rect>
                <rect id="Rectangle-path" x="54.321" y="46.775" width="24.363" height="13.266"></rect>
                <rect id="Rectangle-path" x="0.498" y="31.42" width="24.364" height="13.264"></rect>
                <rect id="Rectangle-path" x="27.41" y="31.42" width="24.363" height="13.264"></rect>
                <rect id="Rectangle-path" x="54.321" y="31.42" width="24.363" height="13.264"></rect>
            </g>
            <g id="Group" transform="translate(89.000000, 147.000000)">
                <rect id="Rectangle-path" x="0" y="0" width="79" height="13.265"></rect>
                <rect id="Rectangle-path" x="26" y="16" width="20" height="3"></rect>
                <rect id="Rectangle-path" x="26" y="21" width="28.35" height="3"></rect>
                <rect id="Rectangle-path" x="26" y="26" width="28.35" height="3"></rect>
                <rect id="Rectangle-path" x="0" y="32" width="37.697" height="13.264"></rect>
                <rect id="Rectangle-path" x="41" y="32" width="37.697" height="13.264"></rect>
                <rect id="Rectangle-path" x="0" y="47" width="20" height="3"></rect>
                <rect id="Rectangle-path" x="41" y="47" width="20" height="3"></rect>
                <rect id="Rectangle-path" x="0" y="52" width="28.35" height="3"></rect>
                <rect id="Rectangle-path" x="41" y="52" width="28.35" height="3"></rect>
                <rect id="Rectangle-path" x="0" y="57" width="28.35" height="3"></rect>
                <rect id="Rectangle-path" x="41" y="57" width="28.35" height="3"></rect>
            </g>
            <g id="Group" transform="translate(178.000000, 73.000000)">
                <rect id="Rectangle-path" x="0.646" y="16.061" width="51.273" height="13.264"></rect>
                <rect id="Rectangle-path" x="54.468" y="16.061" width="24.363" height="13.264"></rect>
                <rect id="Rectangle-path" x="0.646" y="0.703" width="24.362" height="13.265"></rect>
                <rect id="Rectangle-path" x="27.558" y="0.703" width="51.273" height="13.265"></rect>
                <rect id="Rectangle-path" x="0.646" y="46.775" width="51.273" height="13.266"></rect>
                <rect id="Rectangle-path" x="54.468" y="46.775" width="24.363" height="13.266"></rect>
                <rect id="Rectangle-path" x="0.646" y="31.419" width="24.362" height="13.267"></rect>
                <rect id="Rectangle-path" x="27.558" y="31.42" width="51.273" height="13.264"></rect>
            </g>
            <g id="Group" transform="translate(178.000000, 147.000000)">
                <rect id="Rectangle-path" x="0" y="0" width="79" height="13.265"></rect>
                <rect id="Rectangle-path" x="0" y="31.735" width="79" height="13.265"></rect>
                <rect id="Rectangle-path" x="29" y="16" width="20" height="3"></rect>
                <rect id="Rectangle-path" x="29" y="47.735" width="20" height="3"></rect>
                <rect id="Rectangle-path" x="25" y="21" width="28.35" height="3"></rect>
                <rect id="Rectangle-path" x="25" y="52.735" width="28.35" height="3"></rect>
                <rect id="Rectangle-path" x="25" y="26" width="28.35" height="3"></rect>
                <rect id="Rectangle-path" x="25" y="57.735" width="28.35" height="3"></rect>
            </g>
            <g id="Group" transform="translate(89.000000, 0.000000)">
                <rect id="Rectangle-path" x="0.44" y="0.754" width="78.188" height="13.264"></rect>
                <rect id="Rectangle-path" x="0.44" y="16.11" width="78.301" height="13.264"></rect>
                <rect id="Rectangle-path" x="0.44" y="31.47" width="78.188" height="13.264"></rect>
                <rect id="Rectangle-path" x="0.44" y="46.826" width="78.301" height="13.264"></rect>
            </g>
        </g>
    </g>
</svg>